<?xml version="1.0" standalone="no"?>
<!DOCTYPE svg PUBLIC "-//W3C//DTD SVG 20010904//EN"
 "http://www.w3.org/TR/2001/REC-SVG-20010904/DTD/svg10.dtd">
<svg fill="#fff" version="1.0" xmlns="http://www.w3.org/2000/svg"
 width="197.000000pt" height="60.000000pt" viewBox="0 0 197.000000 60.000000"
 preserveAspectRatio="xMidYMid meet">

<g transform="translate(0.000000,60.000000) scale(0.100000,-0.100000)"
fill="#000000" stroke="none">
<path d="M1770 524 c0 -35 -26 -64 -59 -64 -12 0 -19 -4 -16 -10 10 -17 61
-11 78 8 19 21 22 59 7 82 -7 11 -10 8 -10 -16z"/>
<path d="M1498 411 c4 -50 1 -61 -22 -88 -21 -25 -23 -32 -11 -36 8 -4 23 5
35 20 23 30 27 117 7 145 -11 14 -13 7 -9 -41z"/>
<path d="M351 428 c13 -48 11 -92 -7 -138 -22 -54 -68 -81 -150 -88 l-64 -5 0
-78 0 -79 -40 0 c-22 0 -40 -4 -40 -10 0 -5 23 -10 50 -10 l50 0 0 79 0 78 64
5 c35 3 78 14 95 24 61 36 89 142 57 219 -19 44 -28 45 -15 3z"/>
<path d="M130 371 c0 -47 4 -81 10 -81 6 0 10 30 10 71 l0 72 46 -6 c30 -3 42
-1 36 5 -6 6 -31 13 -56 15 l-46 6 0 -82z"/>
<path d="M1300 390 c0 -33 4 -60 10 -60 6 0 10 23 10 51 l0 51 41 -4 c35 -3
38 -2 23 9 -10 7 -33 13 -51 13 l-33 0 0 -60z"/>
<path d="M1780 266 c0 -79 4 -137 10 -141 6 -4 10 43 10 134 0 87 -4 141 -10
141 -6 0 -10 -51 -10 -134z"/>
<path d="M728 363 c-3 -27 -5 -28 -58 -25 -30 2 -70 0 -87 -3 l-33 -6 0 -144
0 -145 -40 0 c-22 0 -40 -4 -40 -10 0 -5 23 -10 50 -10 l50 0 0 144 0 144 31
7 c17 4 55 4 85 0 58 -7 56 -8 68 48 5 20 2 27 -8 27 -9 0 -16 -12 -18 -27z"/>
<path d="M1110 348 c0 -3 7 -22 15 -41 40 -97 -5 -227 -92 -263 -38 -16 -91
-18 -127 -4 -35 13 -33 4 4 -15 36 -19 100 -19 143 -1 85 35 130 157 95 257
-10 32 -38 80 -38 67z"/>
<path d="M919 314 c-20 -21 -24 -36 -24 -87 0 -34 5 -70 11 -80 8 -13 10 0 10
52 -1 61 2 73 24 96 17 18 32 25 47 22 26 -5 31 8 7 17 -30 11 -51 6 -75 -20z"/>
<path d="M1590 330 c0 -5 20 -10 45 -10 25 0 45 5 45 10 0 6 -20 10 -45 10
-25 0 -45 -4 -45 -10z"/>
<path d="M1300 180 c0 -40 4 -70 10 -70 6 0 10 27 10 61 l0 62 52 -5 c47 -5
49 -4 27 8 -13 7 -41 13 -61 14 l-38 0 0 -70z"/>
<path d="M1523 213 c9 -36 8 -49 -9 -90 -15 -38 -28 -53 -64 -71 -40 -21 -56
-23 -137 -20 -92 4 -122 -4 -62 -16 17 -3 64 -6 103 -6 100 0 154 27 180 91
20 50 17 100 -8 135 -13 17 -13 14 -3 -23z"/>
<path d="M1910 81 c0 -16 -5 -33 -11 -36 -21 -14 -126 -17 -147 -6 -12 6 -22
9 -22 7 0 -3 14 -13 32 -22 23 -12 47 -15 89 -11 32 3 62 8 68 12 14 8 14 72
1 80 -6 4 -10 -6 -10 -24z"/>
</g>
</svg>
